<svg width="184" height="86" viewBox="0 0 184 86" fill="none" xmlns="http://www.w3.org/2000/svg">
    <g clip-path="url(#clip0)">
        <path
            d="M38.935 47.1306C41.4015 47.4125 47.7086 35.7118 48.162 35.4516C48.6155 35.1914 57.6982 35.7579 56.4993 31.9417C53.7683 33.7658 52.487 31.7899 52.6106 30.3534C52.7343 28.9142 55.0462 25.8596 55.6543 26.0656C56.2623 26.2743 57.31 27.9764 59.4949 26.399C56.1867 26.6483 56.9665 22.8294 57.9937 22.3714C59.0242 21.916 63.0194 20.5229 64.1771 19.6366C65.3348 18.7503 65.4241 15.9559 67.7841 16.5712C70.1441 17.1864 68.4024 21.149 69.1066 22.4825C69.8109 23.816 76.1935 28.0713 76.087 29.4129C75.9805 30.7573 73.2976 30.516 73.356 32.3916C73.356 33.1505 75.029 33.717 75.0736 34.6033C75.1217 35.4896 73.2667 36.1563 73.2667 36.1563C73.2667 36.1563 74.8572 36.5005 74.5481 37.8313C74.232 39.1594 72.1949 38.7583 71.5422 39.0347C71.2365 39.1675 74.6717 42.1408 72.1125 44.3823C69.804 46.5262 58.2513 44.2685 56.0287 44.9488C51.848 46.2308 48.3853 50.6785 50.6903 52.7844C52.992 54.8877 60.9445 61.6772 63.0091 67.3174C66.5508 74.7113 57.87 87.6181 53.016 78.2565C46.1455 81.9046 60.5117 95.302 80.6628 75.1396C96.1042 58.7445 88.5535 28.8952 83.9915 22.1898C79.4364 15.4871 58.1998 -7.67034 35.4104 2.58027C7.06287 14.7986 20.5462 44.3606 38.935 47.1306Z"
            fill="#FF1F66" />
    </g>
    <path
        d="M108.621 32.0938L113.734 46.5312L118.82 32.0938H124.207V52H120.092V46.5586L120.502 37.166L115.129 52H112.312L106.953 37.1797L107.363 46.5586V52H103.262V32.0938H108.621ZM133.053 46.4082L135.787 37.207H140.025L134.078 54.2969L133.75 55.0762C132.866 57.0085 131.408 57.9746 129.375 57.9746C128.801 57.9746 128.217 57.888 127.625 57.7148V54.7207L128.227 54.7344C128.974 54.7344 129.53 54.6204 129.895 54.3926C130.268 54.1647 130.56 53.7865 130.77 53.2578L131.234 52.041L126.053 37.207H130.305L133.053 46.4082ZM157.471 45.3691C157.316 47.5111 156.523 49.1973 155.092 50.4277C153.67 51.6582 151.792 52.2734 149.459 52.2734C146.907 52.2734 144.897 51.4167 143.43 49.7031C141.971 47.9805 141.242 45.6198 141.242 42.6211V41.4043C141.242 39.4902 141.579 37.804 142.254 36.3457C142.928 34.8874 143.89 33.7708 145.139 32.9961C146.396 32.2122 147.855 31.8203 149.514 31.8203C151.811 31.8203 153.661 32.4355 155.064 33.666C156.468 34.8965 157.279 36.6237 157.498 38.8477H153.396C153.296 37.5625 152.936 36.6328 152.316 36.0586C151.706 35.4753 150.771 35.1836 149.514 35.1836C148.146 35.1836 147.121 35.6758 146.438 36.6602C145.763 37.6354 145.417 39.153 145.398 41.2129V42.7168C145.398 44.8678 145.722 46.4401 146.369 47.4336C147.025 48.4271 148.055 48.9238 149.459 48.9238C150.726 48.9238 151.669 48.6367 152.289 48.0625C152.918 47.4792 153.278 46.5814 153.369 45.3691H157.471ZM168.764 50.4961C167.788 51.681 166.439 52.2734 164.717 52.2734C163.131 52.2734 161.919 51.8177 161.08 50.9062C160.251 49.9948 159.827 48.6595 159.809 46.9004V37.207H163.76V46.7637C163.76 48.304 164.462 49.0742 165.865 49.0742C167.205 49.0742 168.126 48.6094 168.627 47.6797V37.207H172.592V52H168.873L168.764 50.4961ZM180.303 33.5703V37.207H182.832V40.1055H180.303V47.4883C180.303 48.0352 180.408 48.4271 180.617 48.6641C180.827 48.901 181.228 49.0195 181.82 49.0195C182.258 49.0195 182.645 48.9876 182.982 48.9238V51.918C182.208 52.1549 181.41 52.2734 180.59 52.2734C177.819 52.2734 176.406 50.8743 176.352 48.0762V40.1055H174.191V37.207H176.352V33.5703H180.303Z"
        fill="#FF1F66" />
    <defs>
        <clipPath id="clip0">
            <rect width="109" height="86" fill="white" />
        </clipPath>
    </defs>
</svg>