<svg width="150" height="196" viewBox="0 0 150 196" fill="none" xmlns="http://www.w3.org/2000/svg">
    <g clip-path="url(#clip0)">
        <path
            d="M53.5803 76.1762C56.9745 76.6318 65.654 57.7203 66.278 57.2997C66.902 56.8792 79.4012 57.7947 77.7514 51.6267C73.9931 54.5749 72.2298 51.3814 72.4 49.0596C72.5702 46.7334 75.7517 41.7964 76.5885 42.1293C77.4252 42.4666 78.8671 45.2177 81.8737 42.6681C77.3212 43.0712 78.3943 36.8987 79.8078 36.1584C81.226 35.4224 86.724 33.1707 88.3171 31.7383C89.9102 30.3058 90.0331 25.7892 93.2809 26.7837C96.5286 27.7781 94.1318 34.1827 95.1009 36.338C96.07 38.4933 104.854 45.371 104.707 47.5395C104.56 49.7123 100.868 49.3224 100.949 52.3539C100.949 53.5805 103.251 54.4961 103.312 55.9285C103.379 57.361 100.826 58.4387 100.826 58.4387C100.826 58.4387 103.015 58.995 102.589 61.146C102.154 63.2925 99.3508 62.6442 98.4526 63.091C98.0319 63.3057 102.759 68.1113 99.2374 71.7342C96.0606 75.1993 80.1624 71.5502 77.1037 72.6497C71.3505 74.7218 66.5853 81.9106 69.7574 85.3144C72.9247 88.7138 83.8686 99.6875 86.7098 108.804C91.5837 120.754 79.6376 141.615 72.9578 126.484C63.503 132.381 83.273 154.035 111.004 121.446C132.253 94.9475 121.863 46.7028 115.585 35.8649C109.316 25.0314 80.0914 -12.3974 48.73 4.17043C9.71956 23.9187 28.2746 71.6991 53.5803 76.1762Z"
            fill="#FF1F66" />
    </g>
    <path
        d="M41.6211 169.094L46.7344 183.531L51.8203 169.094H57.207V189H53.0918V183.559L53.502 174.166L48.1289 189H45.3125L39.9531 174.18L40.3633 183.559V189H36.2617V169.094H41.6211ZM66.0527 183.408L68.7871 174.207H73.0254L67.0781 191.297L66.75 192.076C65.8659 194.008 64.4076 194.975 62.375 194.975C61.8008 194.975 61.2174 194.888 60.625 194.715V191.721L61.2266 191.734C61.974 191.734 62.5299 191.62 62.8945 191.393C63.2682 191.165 63.5599 190.786 63.7695 190.258L64.2344 189.041L59.0527 174.207H63.3047L66.0527 183.408ZM90.4707 182.369C90.3158 184.511 89.5228 186.197 88.0918 187.428C86.6699 188.658 84.7923 189.273 82.459 189.273C79.9069 189.273 77.8971 188.417 76.4297 186.703C74.9714 184.98 74.2422 182.62 74.2422 179.621V178.404C74.2422 176.49 74.5794 174.804 75.2539 173.346C75.9284 171.887 76.89 170.771 78.1387 169.996C79.3965 169.212 80.8548 168.82 82.5137 168.82C84.8105 168.82 86.6608 169.436 88.0645 170.666C89.4681 171.896 90.2793 173.624 90.498 175.848H86.3965C86.2962 174.562 85.9362 173.633 85.3164 173.059C84.7057 172.475 83.7715 172.184 82.5137 172.184C81.1465 172.184 80.1211 172.676 79.4375 173.66C78.763 174.635 78.4167 176.153 78.3984 178.213V179.717C78.3984 181.868 78.722 183.44 79.3691 184.434C80.0254 185.427 81.0553 185.924 82.459 185.924C83.7259 185.924 84.6693 185.637 85.2891 185.062C85.918 184.479 86.278 183.581 86.3691 182.369H90.4707ZM101.764 187.496C100.788 188.681 99.4395 189.273 97.7168 189.273C96.1309 189.273 94.9186 188.818 94.0801 187.906C93.2507 186.995 92.8268 185.66 92.8086 183.9V174.207H96.7598V183.764C96.7598 185.304 97.4616 186.074 98.8652 186.074C100.205 186.074 101.126 185.609 101.627 184.68V174.207H105.592V189H101.873L101.764 187.496ZM113.303 170.57V174.207H115.832V177.105H113.303V184.488C113.303 185.035 113.408 185.427 113.617 185.664C113.827 185.901 114.228 186.02 114.82 186.02C115.258 186.02 115.645 185.988 115.982 185.924V188.918C115.208 189.155 114.41 189.273 113.59 189.273C110.819 189.273 109.406 187.874 109.352 185.076V177.105H107.191V174.207H109.352V170.57H113.303Z"
        fill="#FF1F66" />
    <defs>
        <clipPath id="clip0">
            <rect width="150" height="139" fill="white" />
        </clipPath>
    </defs>
</svg>